# Rhino

mtllib Plate.mtl
usemtl diffuse_0_0_0_255
v 382.31076049804688 120.05739593505859 -620.8470458984375
v 377.47763061523438 120.05739593505859 -620.8470458984375
v 382.31076049804688 -79.942604064941406 -620.8470458984375
v 377.47763061523438 -79.942604064941406 -620.8470458984375
v 382.31076049804688 -79.942604064941406 -620.8470458984375
v 377.47763061523438 -79.942604064941406 -620.8470458984375
v 382.31076049804688 -79.942604064941406 -480.8470458984375
v 377.47763061523438 -79.942604064941406 -480.8470458984375
v 382.31076049804688 -79.942604064941406 -480.8470458984375
v 377.47763061523438 -79.942604064941406 -480.8470458984375
v 382.31076049804688 120.05739593505859 -480.8470458984375
v 377.47763061523438 120.05739593505859 -480.8470458984375
v 382.31076049804688 120.05739593505859 -480.8470458984375
v 377.47763061523438 120.05739593505859 -480.8470458984375
v 382.31076049804688 120.05739593505859 -620.8470458984375
v 377.47763061523438 120.05739593505859 -620.8470458984375
v 382.31076049804688 120.05739593505859 -620.8470458984375
v 382.31076049804688 -79.942604064941406 -620.8470458984375
v 382.31076049804688 -79.942604064941406 -480.8470458984375
v 382.31076049804688 120.05739593505859 -480.8470458984375
v 377.47763061523438 120.05739593505859 -620.8470458984375
v 377.47763061523438 -79.942604064941406 -620.8470458984375
v 377.47763061523438 -79.942604064941406 -480.8470458984375
v 377.47763061523438 120.05739593505859 -480.8470458984375
vt 0 0
vt 0 0.50848394632339478
vt 0.29411765933036804 0
vt 0.29411765933036804 0.50848394632339478
vt 0.29411765933036804 0
vt 0.29411765933036804 0.50848394632339478
vt 0.5 0
vt 0.5 0.50848394632339478
vt 0.5 0
vt 0.5 0.50848394632339478
vt 0.79411762952804565 0
vt 0.79411762952804565 0.50848394632339478
vt 0.79411762952804565 0
vt 0.79411762952804565 0.50848394632339478
vt 1 0
vt 1 0.50848394632339478
vt 0 1
vt 0.29411765933036804 1
vt 0.29411765933036804 0.50848442316055298
vt 0 0.50848442316055298
vt 0.70588237047195435 0.50848442316055298
vt 1 0.50848442316055298
vt 1 1
vt 0.70588237047195435 1
vn 0 0 -1
vn 0 0 -1
vn 0 0 -1
vn 0 0 -1
vn 0 -1 0
vn 0 -1 0
vn 0 -1 0
vn 0 -1 0
vn 0 0 1
vn 0 0 1
vn 0 0 1
vn 0 0 1
vn 0 1 0
vn 0 1 0
vn 0 1 0
vn 0 1 0
vn 1 0 0
vn 1 0 0
vn 1 0 0
vn 1 0 0
vn -1 0 0
vn -1 0 0
vn -1 0 0
vn -1 0 0
f 1/1/1 3/3/3 4/4/4 2/2/2
f 5/5/5 7/7/7 8/8/8 6/6/6
f 9/9/9 11/11/11 12/12/12 10/10/10
f 13/13/13 15/15/15 16/16/16 14/14/14
f 18/18/18 17/17/17 20/20/20
f 20/20/20 19/19/19 18/18/18
f 22/22/22 24/24/24 21/21/21
f 24/24/24 22/22/22 23/23/23
usemtl diffuse_0_0_0_255
v 382.31076049804688 61.064243316650391 -569.27459716796875
v 435.3028564453125 61.064243316650391 -569.27459716796875
v 382.31076049804688 61.064243316650391 -532.41949462890625
v 435.3028564453125 61.064243316650391 -532.41949462890625
v 382.31076049804688 61.064243316650391 -532.41949462890625
v 435.3028564453125 61.064243316650391 -532.41949462890625
v 382.31076049804688 -20.94944953918457 -532.41949462890625
v 435.3028564453125 -20.94944953918457 -532.41949462890625
v 382.31076049804688 -20.94944953918457 -532.41949462890625
v 435.3028564453125 -20.94944953918457 -532.41949462890625
v 382.31076049804688 -20.94944953918457 -569.27459716796875
v 435.3028564453125 -20.94944953918457 -569.27459716796875
v 382.31076049804688 -20.94944953918457 -569.27459716796875
v 435.3028564453125 -20.94944953918457 -569.27459716796875
v 382.31076049804688 61.064243316650391 -569.27459716796875
v 435.3028564453125 61.064243316650391 -569.27459716796875
v 382.31076049804688 61.064243316650391 -569.27459716796875
v 382.31076049804688 61.064243316650391 -532.41949462890625
v 382.31076049804688 -20.94944953918457 -532.41949462890625
v 382.31076049804688 -20.94944953918457 -569.27459716796875
v 435.3028564453125 61.064243316650391 -569.27459716796875
v 435.3028564453125 61.064243316650391 -532.41949462890625
v 435.3028564453125 -20.94944953918457 -532.41949462890625
v 435.3028564453125 -20.94944953918457 -569.27459716796875
vt 0 0
vt 0 0.70912003517150879
vt 0.078916728496551514 0
vt 0.078916728496551514 0.70912003517150879
vt 0.078916728496551514 0
vt 0.078916728496551514 0.70912003517150879
vt 0.5 0
vt 0.5 0.70912003517150879
vt 0.5 0
vt 0.5 0.70912003517150879
vt 0.57891672849655151 0
vt 0.57891672849655151 0.70912003517150879
vt 0.57891672849655151 0
vt 0.57891672849655151 0.70912003517150879
vt 1 0
vt 1 0.70912003517150879
vt 0.34497573971748352 1
vt 0.34497573971748352 0.70912075042724609
vt 0 0.70912075042724609
vt 0 1
vt 1 0.70912075042724609
vt 1 1
vt 0.65502423048019409 1
vt 0.65502423048019409 0.70912075042724609
vn 0 1 0
vn 0 1 0
vn 0 1 0
vn 0 1 0
vn 0 0 1
vn 0 0 1
vn 0 0 1
vn 0 0 1
vn 0 -1 0
vn 0 -1 0
vn 0 -1 0
vn 0 -1 0
vn 0 0 -1
vn 0 0 -1
vn 0 0 -1
vn 0 0 -1
vn -1 0 0
vn -1 0 0
vn -1 0 0
vn -1 0 0
vn 1 0 0
vn 1 0 0
vn 1 0 0
vn 1 0 0
f 25/25/25 27/27/27 28/28/28 26/26/26
f 29/29/29 31/31/31 32/32/32 30/30/30
f 33/33/33 35/35/35 36/36/36 34/34/34
f 37/37/37 39/39/39 40/40/40 38/38/38
f 42/42/42 41/41/41 44/44/44
f 44/44/44 43/43/43 42/42/42
f 46/46/46 48/48/48 45/45/45
f 48/48/48 46/46/46 47/47/47
